HIERARCHY
ROOT Hips
{
  OFFSET 91.2244 90.026 26.1335
  CHANNELS 6 Xposition Yposition Zposition Zrotation Xrotation Yrotation
  JOINT RightUpLeg
  {
    OFFSET -9.26543 -1.55198 -0.00276407
    CHANNELS 3 Zrotation Xrotation Yrotation
    JOINT RightLeg
    {
      OFFSET 0.00706465 -41.889 0.0798854
      CHANNELS 3 Zrotation Xrotation Yrotation
      JOINT RightFoot
      {
        OFFSET -1.51766 -41.6901 -0.263239
        CHANNELS 3 Zrotation Xrotation Yrotation
        End Site
        {
          OFFSET 0 -7.69 17.5
        }
      }
    }
  }
  JOINT LeftUpLeg
  {
    OFFSET 9.33035 -1.6331 0.002402
    CHANNELS 3 Zrotation Xrotation Yrotation
    JOINT LeftLeg
    {
      OFFSET 0.0774 -41.8788 0.006528
      CHANNELS 3 Zrotation Xrotation Yrotation
      JOINT LeftFoot
      {
        OFFSET 0.406189 -42.2791 -0.67832
        CHANNELS 3 Zrotation Xrotation Yrotation
        End Site
        {
          OFFSET 0 -7.69 17.5
        }
      }
    }
  }
  JOINT Spine
  {
    OFFSET 0.0210118 14.3125 0.030377
    CHANNELS 3 Zrotation Xrotation Yrotation
    JOINT Spine1
    {
      OFFSET -2.02627e-05 9.71981 0.0121962
      CHANNELS 3 Zrotation Xrotation Yrotation
      JOINT Spine2
      {
        OFFSET 0.023812 10.122 0.0180119
        CHANNELS 3 Zrotation Xrotation Yrotation
        JOINT Spine3
        {
          OFFSET 0.00443321 9.71861 0.0143853
          CHANNELS 3 Zrotation Xrotation Yrotation
          JOINT Neck
          {
            OFFSET -0.025003 10.3767 0.0233355
            CHANNELS 3 Zrotation Xrotation Yrotation
            JOINT Head
            {
              OFFSET -0.00975384 9.4764 0.045578
              CHANNELS 3 Zrotation Xrotation Yrotation
              End Site
              {
                OFFSET 0 15.95 0
              }
            }
          }
          JOINT RightShoulder
          {
            OFFSET -3.18407 6.9358 0.0313291
            CHANNELS 3 Zrotation Xrotation Yrotation
            JOINT RightArm
            {
              OFFSET -12.7601 0.0147069 0.0234973
              CHANNELS 3 Zrotation Xrotation Yrotation
              JOINT RightForeArm
              {
                OFFSET -26.4708 -0.032683 0.042111
                CHANNELS 3 Zrotation Xrotation Yrotation
                JOINT RightHand
                {
                  OFFSET -26.0234 -0.0283521 0.00388791
                  CHANNELS 3 Zrotation Xrotation Yrotation
                  JOINT RightHandThumb1
                  {
                    OFFSET -2.48905 0.190105 3.12053
                    CHANNELS 3 Zrotation Xrotation Yrotation
                    JOINT RightHandThumb2
                    {
                      OFFSET -3.68274 0 0
                      CHANNELS 3 Zrotation Xrotation Yrotation
                      JOINT RightHandThumb3
                      {
                        OFFSET -2.55832 0 0
                        CHANNELS 3 Zrotation Xrotation Yrotation
                        End Site
                        {
                          OFFSET -2.194 0 0
                        }
                      }
                    }
                  }
                  JOINT RightInHandIndex
                  {
                    OFFSET -3.22368 0.508421 1.97842
                    CHANNELS 3 Zrotation Xrotation Yrotation
                    JOINT RightHandIndex1
                    {
                      OFFSET -5.21684 -0.091368 0.999158
                      CHANNELS 3 Zrotation Xrotation Yrotation
                      JOINT RightHandIndex2
                      {
                        OFFSET -3.61937 0 0
                        CHANNELS 3 Zrotation Xrotation Yrotation
                        JOINT RightHandIndex3
                        {
                          OFFSET -2.0521 0 0
                          CHANNELS 3 Zrotation Xrotation Yrotation
                          End Site
                          {
                            OFFSET -1.805 0 0
                          }
                        }
                      }
                    }
                  }
                  JOINT RightInHandMiddle
                  {
                    OFFSET -3.38211 0.517263 0.756737
                    CHANNELS 3 Zrotation Xrotation Yrotation
                    JOINT RightHandMiddle1
                    {
                      OFFSET -5.17411 -0.084 0.313895
                      CHANNELS 3 Zrotation Xrotation Yrotation
                      JOINT RightHandMiddle2
                      {
                        OFFSET -3.94947 0 0
                        CHANNELS 3 Zrotation Xrotation Yrotation
                        JOINT RightHandMiddle3
                        {
                          OFFSET -2.47579 0 0
                          CHANNELS 3 Zrotation Xrotation Yrotation
                          End Site
                          {
                            OFFSET -1.975 0 0
                          }
                        }
                      }
                    }
                  }
                  JOINT RightInHandRing
                  {
                    OFFSET -3.36516 0.537895 -0.128947
                    CHANNELS 3 Zrotation Xrotation Yrotation
                    JOINT RightHandRing1
                    {
                      OFFSET -4.63474 -0.022105 -0.478947
                      CHANNELS 3 Zrotation Xrotation Yrotation
                      JOINT RightHandRing2
                      {
                        OFFSET -3.44238 0 0
                        CHANNELS 3 Zrotation Xrotation Yrotation
                        JOINT RightHandRing3
                        {
                          OFFSET -2.3881 0 0
                          CHANNELS 3 Zrotation Xrotation Yrotation
                          End Site
                          {
                            OFFSET -1.857 0 0
                          }
                        }
                      }
                    }
                  }
                  JOINT RightInHandPinky
                  {
                    OFFSET -3.16105 0.469368 -1.20179
                    CHANNELS 3 Zrotation Xrotation Yrotation
                    JOINT RightHandPinky1
                    {
                      OFFSET -4.14105 -0.022105 -1.09053
                      CHANNELS 3 Zrotation Xrotation Yrotation
                      JOINT RightHandPinky2
                      {
                        OFFSET -2.75653 0 0
                        CHANNELS 3 Zrotation Xrotation Yrotation
                        JOINT RightHandPinky3
                        {
                          OFFSET -1.74189 0 0
                          CHANNELS 3 Zrotation Xrotation Yrotation
                          End Site
                          {
                            OFFSET -1.645 0 0
                          }
                        }
                      }
                    }
                  }
                }
              }
            }
          }
          JOINT LeftShoulder
          {
            OFFSET 3.21192 6.92101 0.01407
            CHANNELS 3 Zrotation Xrotation Yrotation
            JOINT LeftArm
            {
              OFFSET 12.7303 -0.00466279 0.011464
              CHANNELS 3 Zrotation Xrotation Yrotation
              JOINT LeftForeArm
              {
                OFFSET 26.497 -0.127446 0.0273404
                CHANNELS 3 Zrotation Xrotation Yrotation
                JOINT LeftHand
                {
                  OFFSET 26.0093 -0.0453415 -0.0774742
                  CHANNELS 3 Zrotation Xrotation Yrotation
                  JOINT LeftHandThumb1
                  {
                    OFFSET 2.48905 0.190105 3.12053
                    CHANNELS 3 Zrotation Xrotation Yrotation
                    JOINT LeftHandThumb2
                    {
                      OFFSET 3.68274 0 0
                      CHANNELS 3 Zrotation Xrotation Yrotation
                      JOINT LeftHandThumb3
                      {
                        OFFSET 2.55832 0 0
                        CHANNELS 3 Zrotation Xrotation Yrotation
                        End Site
                        {
                          OFFSET 2.194 0 0
                        }
                      }
                    }
                  }
                  JOINT LeftInHandIndex
                  {
                    OFFSET 3.22368 0.508421 1.97842
                    CHANNELS 3 Zrotation Xrotation Yrotation
                    JOINT LeftHandIndex1
                    {
                      OFFSET 5.21684 -0.091368 0.999158
                      CHANNELS 3 Zrotation Xrotation Yrotation
                      JOINT LeftHandIndex2
                      {
                        OFFSET 3.61937 0 0
                        CHANNELS 3 Zrotation Xrotation Yrotation
                        JOINT LeftHandIndex3
                        {
                          OFFSET 2.0521 0 0
                          CHANNELS 3 Zrotation Xrotation Yrotation
                          End Site
                          {
                            OFFSET 1.805 0 0
                          }
                        }
                      }
                    }
                  }
                  JOINT LeftInHandMiddle
                  {
                    OFFSET 3.38211 0.517263 0.756737
                    CHANNELS 3 Zrotation Xrotation Yrotation
                    JOINT LeftHandMiddle1
                    {
                      OFFSET 5.17411 -0.084 0.313895
                      CHANNELS 3 Zrotation Xrotation Yrotation
                      JOINT LeftHandMiddle2
                      {
                        OFFSET 3.94947 0 0
                        CHANNELS 3 Zrotation Xrotation Yrotation
                        JOINT LeftHandMiddle3
                        {
                          OFFSET 2.47579 0 0
                          CHANNELS 3 Zrotation Xrotation Yrotation
                          End Site
                          {
                            OFFSET 1.975 0 0
                          }
                        }
                      }
                    }
                  }
                  JOINT LeftInHandRing
                  {
                    OFFSET 3.36516 0.537895 -0.128947
                    CHANNELS 3 Zrotation Xrotation Yrotation
                    JOINT LeftHandRing1
                    {
                      OFFSET 4.63474 -0.022105 -0.478947
                      CHANNELS 3 Zrotation Xrotation Yrotation
                      JOINT LeftHandRing2
                      {
                        OFFSET 3.44238 0 0
                        CHANNELS 3 Zrotation Xrotation Yrotation
                        JOINT LeftHandRing3
                        {
                          OFFSET 2.3881 0 0
                          CHANNELS 3 Zrotation Xrotation Yrotation
                          End Site
                          {
                            OFFSET 1.857 0 0
                          }
                        }
                      }
                    }
                  }
                  JOINT LeftInHandPinky
                  {
                    OFFSET 3.16105 0.469368 -1.20179
                    CHANNELS 3 Zrotation Xrotation Yrotation
                    JOINT LeftHandPinky1
                    {
                      OFFSET 4.14105 -0.022105 -1.09053
                      CHANNELS 3 Zrotation Xrotation Yrotation
                      JOINT LeftHandPinky2
                      {
                        OFFSET 2.75653 0 0
                        CHANNELS 3 Zrotation Xrotation Yrotation
                        JOINT LeftHandPinky3
                        {
                          OFFSET 1.74189 0 0
                          CHANNELS 3 Zrotation Xrotation Yrotation
                          End Site
                          {
                            OFFSET 1.645 0 0
                          }
                        }
                      }
                    }
                  }
                }
              }
            }
          }
        }
      }
    }
  }
}
MOTION
Frames: 3
Frame Time: 0.00833333
4.500043880997628207e+02 -1.053489655907637913e-02 9.743510193020518684e-02 2.790316089922042012e-02 4.173197755149689325e-02 2.267800658280624548e-01 -3.876565984137307352e-01 1.617892435906125026e-01 -7.130133778387558463e-01 -1.504546884058318573e-02 -4.924241881062781101e-02 2.507213447562073316e-01 1.317992888208528376e-02 -1.086954831556398958e-02 2.127470555956402498e-02 -8.501715859392469654e-02 -1.636778302725275247e-01 -2.242839354108957794e-01 -7.909395106792381502e-02 -3.029109340034163295e-02 2.272636117470819839e-01 5.195005906901221937e-02 1.642473426837863792e-01 -1.860191250923052264e-01 1.632551482159683154e-01 -3.756056534180614997e-02 -4.052521404973374874e-01 3.455555952715331364e-02 -1.389322741908727635e-02 -9.937423492023575444e-02 5.970619320468740360e-02 -2.879671480983877693e-02 -1.659884530488129339e-01 -9.020685200154131625e-03 -1.502711601160684708e-03 2.115532872163111006e-02 -9.214173610606968615e-03 -4.395202102892815758e-03 2.596854530347102522e-02 -1.764690106343420328e-01 -6.508029575500906549e-02 3.960868746400940110e-01 -1.274778310744419052e+00 3.566931982991773664e-02 4.013746244173894695e+00 8.580323974574368684e-01 -2.287367040532148899e+00 3.733632561089008095e-01 -7.694291909283349495e-01 -2.346360724012252597e+00 1.353164398974851523e-01 -1.400130878977728366e-01 -4.263056726470246804e-01 -9.679999270212732987e-02 0.000000000000000000e+00 0.000000000000000000e+00 0.000000000000000000e+00 9.595046267691177942e-15 4.591599197982141974e-15 0.000000000000000000e+00 7.270194994162550586e-15 -3.324382364353681292e-15 0.000000000000000000e+00 -2.708923841555414744e-15 4.030224289002428053e-15 -3.283420299378040329e-15 0.000000000000000000e+00 0.000000000000000000e+00 0.000000000000000000e+00 0.000000000000000000e+00 -1.450493991763662538e-15 3.882880643626700823e-15 0.000000000000000000e+00 -3.704047916622288003e-15 3.994696575678687638e-15 -2.708923841555414744e-15 4.030224289002428053e-15 -3.283420299378040329e-15 0.000000000000000000e+00 2.824927694529081549e-15 1.138434560996931853e-15 0.000000000000000000e+00 -5.316480432071423193e-15 -3.060595271712413636e-15 0.000000000000000000e+00 1.807408681869578020e-15 6.523510066538620501e-15 -2.708923841555414744e-15 4.030224289002428053e-15 -3.283420299378040329e-15 0.000000000000000000e+00 0.000000000000000000e+00 0.000000000000000000e+00 0.000000000000000000e+00 -2.635564016649911105e-15 -5.015603443862471905e-15 0.000000000000000000e+00 2.244402400511973397e-15 1.021229946196702862e-14 -2.708923841555414744e-15 4.030224289002428053e-15 -3.283420299378040329e-15 0.000000000000000000e+00 0.000000000000000000e+00 0.000000000000000000e+00 0.000000000000000000e+00 4.733060466675040774e-15 1.485794421839783792e-15 0.000000000000000000e+00 2.287636511974490911e-15 1.860670562928414794e-15 -7.303501215553610815e-02 3.386547004793688531e-02 5.994940241403787229e-02 1.371424557990162107e-01 -3.539348339914069608e-02 1.046525641113402322e-01 -9.768497684511457280e+00 4.476075401775019280e-01 -9.497500777333943489e+00 -3.937590470181105751e+00 3.113901308459456341e-01 -3.615632135922252299e+00 0.000000000000000000e+00 0.000000000000000000e+00 0.000000000000000000e+00 3.775329123072347296e-15 -4.005083734773223108e-15 0.000000000000000000e+00 3.162817169089761114e-15 -5.946543299284678272e-15 0.000000000000000000e+00 2.721914350756456564e-15 -3.818147126102237925e-15 -3.954815543946338952e-16 0.000000000000000000e+00 0.000000000000000000e+00 0.000000000000000000e+00 0.000000000000000000e+00 -9.324739847791055521e-16 4.488510919788140233e-15 0.000000000000000000e+00 -3.310842427741303017e-15 -2.695873809341690217e-16 2.721914350756456564e-15 -3.818147126102237925e-15 -3.954815543946338952e-16 0.000000000000000000e+00 -4.293384230379194777e-15 1.180872937432521884e-15 0.000000000000000000e+00 2.018484871231887088e-15 7.472454968614870750e-15 0.000000000000000000e+00 9.764696644824239525e-16 2.726178678415644557e-15 2.721914350756456564e-15 -3.818147126102237925e-15 -3.954815543946338952e-16 0.000000000000000000e+00 0.000000000000000000e+00 0.000000000000000000e+00 0.000000000000000000e+00 -2.263393528200546388e-15 4.743026355256214870e-15 0.000000000000000000e+00 -1.909197543030189066e-16 5.882821209443629212e-16 2.721914350756456564e-15 -3.818147126102237925e-15 -3.954815543946338952e-16 0.000000000000000000e+00 0.000000000000000000e+00 0.000000000000000000e+00 0.000000000000000000e+00 -4.126476479952659465e-15 4.692611251039853681e-15 0.000000000000000000e+00 2.785735187571859470e-16 2.028957874673646791e-15
4.500032495976410587e+02 -1.168340288592338225e-02 9.797807680681679121e-02 2.804592123382531818e-02 4.519779512132032773e-02 2.196993148663989592e-01 -3.853782890384990223e-01 1.647045102489802793e-01 -7.063533747445533972e-01 -8.647594095903512329e-03 -4.866716575432814690e-02 2.373638333119305888e-01 1.230857755121687359e-02 -7.333413290396786910e-03 3.176749249145852105e-02 -8.306469603506247412e-02 -1.584850518274222020e-01 -2.254551099644627743e-01 -7.759801763939165598e-02 -2.735605398739632613e-02 2.266544255852720458e-01 5.241785462204359008e-02 1.624448460292390317e-01 -1.824994496469952154e-01 1.628498105497315496e-01 -3.606847244624780680e-02 -4.152557505064995436e-01 3.439946757120026372e-02 -1.348628051248289446e-02 -1.019451319154903307e-01 5.942294985305821009e-02 -2.827337818791274618e-02 -1.702237346831847742e-01 -8.986810761754547919e-03 -1.529721483425228830e-03 2.232970308666880344e-02 -9.143116883164064193e-03 -4.292800303906210355e-03 2.750060939696514009e-02 -1.777979358127783072e-01 -6.678748958062981356e-02 4.200086599993645420e-01 -1.267038073053761371e+00 2.667430680686099301e-02 4.032958380285529110e+00 8.416181328860871114e-01 -2.317302824834183372e+00 3.534417494859652953e-01 -7.505063023299013425e-01 -2.278640041486604595e+00 1.413093078136277714e-01 -1.627722992707133498e-01 -4.268032112121970534e-01 -1.068780343703626678e-01 0.000000000000000000e+00 0.000000000000000000e+00 0.000000000000000000e+00 9.615313530930894323e-15 4.463709078610287684e-15 0.000000000000000000e+00 7.228299587449484512e-15 -3.240016544249645339e-15 0.000000000000000000e+00 -2.534940868184372305e-15 3.929406435570729759e-15 -3.025750718155057651e-15 0.000000000000000000e+00 0.000000000000000000e+00 0.000000000000000000e+00 0.000000000000000000e+00 -1.842941143481197931e-15 3.793258543740081749e-15 0.000000000000000000e+00 -3.820214973875934444e-15 3.802308838835612376e-15 -2.534940868184372305e-15 3.929406435570729759e-15 -3.025750718155057651e-15 0.000000000000000000e+00 2.715504525601425209e-15 1.093489955988428075e-15 0.000000000000000000e+00 -5.142842233280542127e-15 -3.200800329013025953e-15 0.000000000000000000e+00 1.701903574647350237e-15 6.065791597053259009e-15 -2.534940868184372305e-15 3.929406435570729759e-15 -3.025750718155057651e-15 0.000000000000000000e+00 0.000000000000000000e+00 0.000000000000000000e+00 0.000000000000000000e+00 -2.674565353350003582e-15 -5.007719633008528648e-15 0.000000000000000000e+00 2.168720881408024917e-15 1.004851177858474896e-14 -2.534940868184372305e-15 3.929406435570729759e-15 -3.025750718155057651e-15 0.000000000000000000e+00 0.000000000000000000e+00 0.000000000000000000e+00 0.000000000000000000e+00 4.110876548559148006e-15 1.753813832270830084e-15 0.000000000000000000e+00 2.485502324159549005e-15 1.958692520870367811e-15 -7.076037458703279825e-02 3.667519399831605659e-02 6.099353316344745257e-02 1.263106407329526448e-01 -5.076500011806560353e-02 1.153162572694954313e-01 -1.010035092715406968e+01 4.567493812655993857e-01 -9.832059194926944912e+00 -4.040437130465872606e+00 3.117716974015536380e-01 -3.729030361829416940e+00 0.000000000000000000e+00 0.000000000000000000e+00 0.000000000000000000e+00 3.524636329694042554e-15 -4.173618384177631103e-15 0.000000000000000000e+00 2.875735032918320880e-15 -5.755625924375491906e-15 0.000000000000000000e+00 2.737787246600920203e-15 -3.827521484117219731e-15 -5.711817450475056235e-16 0.000000000000000000e+00 0.000000000000000000e+00 0.000000000000000000e+00 0.000000000000000000e+00 -8.652386354445382892e-16 4.335942165821542241e-15 0.000000000000000000e+00 -3.271836133398009118e-15 -7.728504269739193589e-16 2.737787246600920203e-15 -3.827521484117219731e-15 -5.711817450475056235e-16 0.000000000000000000e+00 -4.274795045079446249e-15 1.018590527820597169e-15 0.000000000000000000e+00 1.755864824630254008e-15 6.826505500700935838e-15 0.000000000000000000e+00 1.063327276360831764e-15 2.566765830453416794e-15 2.737787246600920203e-15 -3.827521484117219731e-15 -5.711817450475056235e-16 0.000000000000000000e+00 0.000000000000000000e+00 0.000000000000000000e+00 0.000000000000000000e+00 -2.305068301555153006e-15 4.263352678607791902e-15 0.000000000000000000e+00 -1.129035783009347342e-16 2.836506964358639686e-16 2.737787246600920203e-15 -3.827521484117219731e-15 -5.711817450475056235e-16 0.000000000000000000e+00 0.000000000000000000e+00 0.000000000000000000e+00 0.000000000000000000e+00 -3.798812966037794003e-15 4.163038035458898785e-15 0.000000000000000000e+00 4.767877100661023245e-16 1.488078365403768014e-15
4.500025487351018683e+02 -1.243163536981094046e-02 9.691992090862483478e-02 2.707112644040523750e-02 4.723324905381513783e-02 2.096028114437878398e-01 -3.758619715940837436e-01 1.637282267479639453e-01 -6.851416367910135863e-01 -3.389891645496303021e-03 -4.661109067962573155e-02 2.202343855944698114e-01 1.160564528714208218e-02 -4.359689014153770963e-03 3.970488288143705219e-02 -8.077094455419912833e-02 -1.511877663235043912e-01 -2.226548643454206167e-01 -7.504303653681576591e-02 -2.438501089857329773e-02 2.219355818904986122e-01 5.210621557409083476e-02 1.581092838518916854e-01 -1.760479474758243901e-01 1.589472174240583180e-01 -3.345846757282580630e-02 -4.160216493415005434e-01 3.350373359696572767e-02 -1.270648210692288012e-02 -1.022537547952345471e-01 5.786372310468961000e-02 -2.697457883637457976e-02 -1.707092938350606715e-01 -8.784065203627389878e-03 -1.574817851992001746e-03 2.291141461218449901e-02 -8.906169467523553096e-03 -4.190793986434761947e-03 2.839860711750170560e-02 -1.755482371697349997e-01 -6.783227319241524889e-02 4.323401331298286632e-01 -1.240345130321996114e+00 1.838701986780733391e-02 3.988394675738924811e+00 8.090304444707442366e-01 -2.304089088172105892e+00 3.344071289536587055e-01 -7.209254065371577536e-01 -2.190220710368634194e+00 1.495160484321106931e-01 -1.813044485779901072e-01 -4.198580656176142401e-01 -1.132753852633071601e-01 0.000000000000000000e+00 0.000000000000000000e+00 0.000000000000000000e+00 9.448218662219375520e-15 4.287155962995853085e-15 0.000000000000000000e+00 7.025988732103544775e-15 -3.108228264192970384e-15 0.000000000000000000e+00 -2.361119738682959291e-15 3.786649633316016433e-15 -2.771893284627730192e-15 0.000000000000000000e+00 0.000000000000000000e+00 0.000000000000000000e+00 0.000000000000000000e+00 -2.203949772619619998e-15 3.670173607918701316e-15 0.000000000000000000e+00 -3.866826639987385696e-15 3.595889150056468534e-15 -2.361119738682959291e-15 3.786649633316016433e-15 -2.771893284627730192e-15 0.000000000000000000e+00 2.578874367927688471e-15 1.022687475564051640e-15 0.000000000000000000e+00 -4.895656780476741133e-15 -3.254488363984098669e-15 0.000000000000000000e+00 1.570336802592975124e-15 5.623071640262539003e-15 -2.361119738682959291e-15 3.786649633316016433e-15 -2.771893284627730192e-15 0.000000000000000000e+00 0.000000000000000000e+00 0.000000000000000000e+00 0.000000000000000000e+00 -2.624842268096196081e-15 -4.903392654547201436e-15 0.000000000000000000e+00 2.091716119140361218e-15 9.729121687309419788e-15 -2.361119738682959291e-15 3.786649633316016433e-15 -2.771893284627730192e-15 0.000000000000000000e+00 0.000000000000000000e+00 0.000000000000000000e+00 0.000000000000000000e+00 3.505153828115713304e-15 1.970986952257011772e-15 0.000000000000000000e+00 2.604120720061008993e-15 2.023218487802259199e-15 -6.700719825716261457e-02 3.803577159740835489e-02 5.940218223924841057e-02 1.161881032299350441e-01 -6.300723182317180537e-02 1.210195521182639428e-01 -1.018122421204823169e+01 4.550318225358442326e-01 -9.921257014196916302e+00 -4.050471383736416797e+00 3.027524347645539349e-01 -3.760306004539896829e+00 0.000000000000000000e+00 0.000000000000000000e+00 0.000000000000000000e+00 3.276963922874207203e-15 -4.228414878522978968e-15 0.000000000000000000e+00 2.568230813333404503e-15 -5.441948952531159018e-15 0.000000000000000000e+00 2.688553703584894763e-15 -3.711815847317393681e-15 -6.954286191835753026e-16 0.000000000000000000e+00 0.000000000000000000e+00 0.000000000000000000e+00 0.000000000000000000e+00 -8.498963537129810563e-16 4.212685741801439809e-15 0.000000000000000000e+00 -3.191171706198789944e-15 -1.066348715217470114e-15 2.688553703584894763e-15 -3.711815847317393681e-15 -6.954286191835753026e-16 0.000000000000000000e+00 -4.194190984519621812e-15 9.518917240030508577e-16 0.000000000000000000e+00 1.459340424887422732e-15 6.229833945827489631e-15 0.000000000000000000e+00 1.104856861322600786e-15 2.529696738668631031e-15 2.688553703584894763e-15 -3.711815847317393681e-15 -6.954286191835753026e-16 0.000000000000000000e+00 0.000000000000000000e+00 0.000000000000000000e+00 0.000000000000000000e+00 -2.348119994254877077e-15 3.902016384766342662e-15 0.000000000000000000e+00 -8.774160742771603761e-17 1.748992918623710483e-16 2.688553703584894763e-15 -3.711815847317393681e-15 -6.954286191835753026e-16 0.000000000000000000e+00 0.000000000000000000e+00 0.000000000000000000e+00 0.000000000000000000e+00 -3.460947987110349581e-15 3.764833804110347310e-15 0.000000000000000000e+00 6.377523861568607940e-16 1.084846143823901644e-15
